<svg xmlns="http://www.w3.org/2000/svg" viewBox="0 0 860 660" width="100%" height="100%">
  <style>
    @import url('https://fonts.googleapis.com/css2?family=Plus+Jakarta+Sans:wght@400;500;600;700&amp;family=JetBrains+Mono:wght@400;500&amp;display=swap');
    
    svg {
      background-color: #0b1329;
      font-family: 'Plus Jakarta Sans', -apple-system, BlinkMacSystemFont, "Segoe UI", Roboto, Helvetica, Arial, sans-serif;
    }
    
    .grid {
      fill: none;
      stroke: #1e293b;
      stroke-width: 1;
      opacity: 0.15;
    }
    
    /* Cluster enclosing box */
    .cluster-card {
      fill: #0c152b;
      stroke: #38bdf8;
      stroke-width: 2.5;
      rx: 20px;
      ry: 20px;
    }
    
    .cluster-title {
      font-size: 16px;
      font-weight: 700;
      fill: #38bdf8;
      letter-spacing: -0.01em;
    }
    
    .ns-card {
      fill: #111b36;
      stroke: #2a3a60;
      stroke-width: 1.5;
      rx: 16px;
      ry: 16px;
      transition: all 0.3s ease;
    }
    
    .ns-card-warning {
      fill: #191427;
      stroke: #991b1b;
      stroke-dasharray: 6,4;
    }
    
    .title {
      font-size: 24px;
      font-weight: 700;
      fill: #f8fafc;
      letter-spacing: -0.025em;
    }
    
    .subtitle {
      font-size: 13px;
      fill: #94a3b8;
      font-weight: 400;
    }
    
    .ns-title {
      font-size: 14px;
      font-weight: 700;
      fill: #f1f5f9;
      letter-spacing: -0.01em;
    }
    
    .node-text {
      font-size: 12px;
      font-weight: 600;
      fill: #e2e8f0;
      text-anchor: middle;
    }
    
    .node-subtext {
      font-size: 9px;
      font-weight: 500;
      fill: #64748b;
      text-anchor: middle;
      font-family: 'JetBrains Mono', monospace;
    }
    
    /* Nodes */
    .node-bg-client {
      fill: #1e293b;
      stroke: #94a3b8;
      stroke-width: 1.5;
      filter: drop-shadow(0 2px 6px rgba(71, 85, 105, 0.15));
    }
    
    .node-bg-svc {
      fill: url(#grad-svc);
      stroke: #10b981;
      stroke-width: 1.5;
    }
    
    .node-bg-pod {
      fill: url(#grad-pod);
      stroke: #0ea5e9;
      stroke-width: 1.5;
    }
    
    .node-bg-cm {
      fill: url(#grad-cm);
      stroke: #eab308;
      stroke-width: 1.5;
    }
    
    .node-bg-warning {
      fill: url(#grad-warning);
      stroke: #ef4444;
      stroke-width: 2;
      filter: drop-shadow(0 4px 12px rgba(239, 68, 68, 0.25));
    }
    
    /* Hover micro-animations */
    .node-group {
      cursor: pointer;
    }
    .node-group:hover .node-bg-svc { stroke-width: 2.5; filter: drop-shadow(0 4px 12px rgba(16, 185, 129, 0.3)); }
    .node-group:hover .node-bg-pod { stroke-width: 2.5; filter: drop-shadow(0 4px 12px rgba(14, 165, 233, 0.3)); }
    .node-group:hover .node-bg-cm  { stroke-width: 2.5; filter: drop-shadow(0 4px 12px rgba(234, 179, 8, 0.25)); }
    .node-group:hover .node-bg-warning { stroke-width: 3; filter: drop-shadow(0 6px 16px rgba(239, 68, 68, 0.4)); }
    
    /* Connections */
    .conn-line {
      fill: none;
      stroke: #475569;
      stroke-width: 1.5;
      stroke-linecap: round;
      marker-end: url(#arrow);
    }
    
    .conn-dashed {
      fill: none;
      stroke: #64748b;
      stroke-width: 1.5;
      stroke-dasharray: 4,4;
      marker-end: url(#arrow-dashed);
    }
    
    .conn-broken {
      fill: none;
      stroke: #ef4444;
      stroke-width: 2;
      stroke-dasharray: 5,3;
    }
    
    /* Badges */
    .badge-bg {
      fill: #1e293b;
      stroke: #475569;
      stroke-width: 1;
      rx: 6px;
      ry: 6px;
    }
    
    .badge-warning-bg {
      fill: #7f1d1d;
      stroke: #f87171;
      stroke-width: 1;
      rx: 6px;
      ry: 6px;
    }
    
    .badge-text {
      font-size: 9px;
      font-weight: 600;
      fill: #f1f5f9;
      text-anchor: middle;
      font-family: 'JetBrains Mono', monospace;
    }
    
    .warning-label {
      font-size: 11px;
      font-weight: 600;
      fill: #f87171;
    }
  </style>
  
  <defs>
    <!-- Background grid -->
    <pattern id="grid-pattern" width="30" height="30" patternUnits="userSpaceOnUse">
      <path d="M 30 0 L 0 0 0 30" class="grid" />
    </pattern>
    
    <!-- Gradients -->
    <linearGradient id="grad-svc" x1="0%" y1="0%" x2="100%" y2="100%">
      <stop offset="0%" stop-color="#064e3b" />
      <stop offset="100%" stop-color="#022c22" />
    </linearGradient>
    
    <linearGradient id="grad-pod" x1="0%" y1="0%" x2="100%" y2="100%">
      <stop offset="0%" stop-color="#0c4a6e" />
      <stop offset="100%" stop-color="#0f172a" />
    </linearGradient>
    
    <linearGradient id="grad-cm" x1="0%" y1="0%" x2="100%" y2="100%">
      <stop offset="0%" stop-color="#78350f" />
      <stop offset="100%" stop-color="#451a03" />
    </linearGradient>
    
    <linearGradient id="grad-warning" x1="0%" y1="0%" x2="100%" y2="100%">
      <stop offset="0%" stop-color="#991b1b" />
      <stop offset="100%" stop-color="#450a0a" />
    </linearGradient>
    
    <!-- Markers -->
    <marker id="arrow" viewBox="0 0 10 10" refX="22" refY="5" markerWidth="6" markerHeight="6" orient="auto-start-reverse">
      <path d="M 0 1 L 9 5 L 0 9 z" fill="#10b981" />
    </marker>
    
    <marker id="arrow-dashed" viewBox="0 0 10 10" refX="22" refY="5" markerWidth="6" markerHeight="6" orient="auto-start-reverse">
      <path d="M 0 1 L 9 5 L 0 9 z" fill="#eab308" />
    </marker>
    
    <!-- Icon Shapes -->
    <!-- Client (Browser) -->
    <g id="icon-client">
      <rect x="-14" y="-12" width="28" height="18" rx="2" fill="none" stroke="#94a3b8" stroke-width="1.5" />
      <line x1="-16" y1="8" x2="16" y2="8" stroke="#94a3b8" stroke-width="2" />
      <line x1="-6" y1="6" x2="-10" y2="10" stroke="#94a3b8" stroke-width="1.5" />
      <line x1="6" y1="6" x2="10" y2="10" stroke="#94a3b8" stroke-width="1.5" />
      <circle cx="0" cy="-3" r="1.5" fill="#94a3b8" />
    </g>
    
    <!-- Service Icon -->
    <g id="icon-svc">
      <circle cx="0" cy="0" r="14" fill="none" stroke="#34d399" stroke-width="1.5" />
      <circle cx="0" cy="0" r="3" fill="#34d399" />
      <circle cx="-6" cy="-6" r="2" fill="#34d399" />
      <circle cx="-6" cy="6" r="2" fill="#34d399" />
      <circle cx="7" cy="0" r="2" fill="#34d399" />
      <line x1="0" y1="0" x2="-6" y2="-6" stroke="#34d399" stroke-width="1" />
      <line x1="0" y1="0" x2="-6" y2="6" stroke="#34d399" stroke-width="1" />
      <line x1="0" y1="0" x2="7" y2="0" stroke="#34d399" stroke-width="1" />
    </g>
    
    <!-- Pod Icon -->
    <g id="icon-pod">
      <polygon points="0,-16 13.86,-8 13.86,8 0,16 -13.86,8 -13.86,-8" fill="none" stroke="#38bdf8" stroke-width="1.8" />
      <line x1="0" y1="-16" x2="0" y2="16" stroke="#38bdf8" stroke-width="1" opacity="0.4" />
      <line x1="0" y1="0" x2="13.86" y2="8" stroke="#38bdf8" stroke-width="1" opacity="0.4" />
      <line x1="0" y1="0" x2="-13.86" y2="8" stroke="#38bdf8" stroke-width="1" opacity="0.4" />
    </g>
    
    <!-- ConfigMap Icon -->
    <g id="icon-cm">
      <path d="M -9,-12 L 3,-12 L 9,-6 L 9,12 L -9,12 Z" fill="none" stroke="#facc15" stroke-width="1.5" />
      <path d="M 3,-12 L 3,-6 L 9,-6" fill="none" stroke="#facc15" stroke-width="1.5" />
      <line x1="-5" y1="-2" x2="5" y2="-2" stroke="#facc15" stroke-width="1.2" opacity="0.8" />
      <line x1="-5" y1="2" x2="5" y2="2" stroke="#facc15" stroke-width="1.2" opacity="0.8" />
      <line x1="-5" y1="6" x2="1" y2="6" stroke="#facc15" stroke-width="1.2" opacity="0.8" />
    </g>
    
    <!-- Warning Icon -->
    <g id="icon-warning">
      <polygon points="0,-14 14,10 -14,10" fill="#ef4444" stroke="#f87171" stroke-width="1.5" />
      <circle cx="0" cy="6" r="1.5" fill="#ffffff" />
      <line x1="0" y1="-6" x2="0" y2="2" stroke="#ffffff" stroke-width="2.5" stroke-linecap="round" />
    </g>
  </defs>
  
  <rect width="{width}" height="{height}" fill="url(#grid-pattern)" />

  <!-- Header Section -->
  <g transform="translate(40, 50)">
    <text class="title" x="0" y="0">Incident: Payment Gateway Down (Section 02a)</text>
    <text class="subtitle" x="0" y="22">Tracing the upstream 503 error due to an unowned backend deployment scaled to 0 replicas.</text>
  </g>

  <!-- Legend Section -->
  <g transform="translate(560, 32)">
    <rect width="260" height="42" fill="#0f172a" stroke="#1e293b" stroke-width="1" rx="6" ry="6" />
    <g transform="translate(18, 21)">
      <line x1="0" y1="0" x2="25" y2="0" class="conn-line" />
      <text x="32" y="4" fill="#94a3b8" font-size="10" font-weight="600">Active Routing</text>
    </g>
    <g transform="translate(138, 21)">
      <line x1="0" y1="0" x2="25" y2="0" class="conn-broken" />
      <text x="32" y="4" fill="#f87171" font-size="10" font-weight="600">Broken Link (503)</text>
    </g>
  </g>

  <!-- User Browser -->
    <!-- Node: Local Browser -->
    <g class="node-group" transform="translate(75, 310)">
      <rect class="node-bg-client" x="-35" y="-35" width="70" height="70" rx="12" ry="12" />
      <use href="#icon-client" x="0" y="-8" />
      <text class="node-text" x="0" y="16">Local Browser</text>
      <text class="node-subtext" x="0" y="27">localhost:8089</text>
    </g>
  <!-- Kubernetes Cluster Box -->
  <g transform="translate(160, 110)">
    <rect class="cluster-card" width="680" height="490" />
    <path d="M 0 16 C 0 7.16 7.16 0 16 0 L 260 0 L 245 32 L 0 32 Z" fill="#1e3a8a" stroke="#38bdf8" stroke-width="1.5" />
    <text class="cluster-title" x="15" y="21">☸️ Kubernetes Cluster (finops-cluster)</text>
  </g>

  <!-- Namespace: payment Namespace -->
  <g transform="translate(190, 175)">
    <rect class="ns-card ns-card-warning" width="620" height="400" />
    <path d="M 0 12 C 0 5.37 5.37 0 12 0 L 150 0 L 135 30 L 0 30 Z" fill="#1e293b" stroke="#2a3a60" stroke-width="1" />
    <text class="ns-title" x="12" y="19">payment Namespace</text>
  </g>
  <!-- Frontend UI Workload -->
    <!-- Node: payment-gateway -->
    <g class="node-group" transform="translate(255, 265)">
      <rect class="node-bg-svc" x="-32" y="-32" width="64" height="64" rx="32" ry="32" />
      <use href="#icon-svc" x="0" y="-8" />
      <text class="node-text" x="0" y="16">payment-gateway</text>
      <text class="node-subtext" x="0" y="27">ClusterIP:80</text>
    </g>
    <!-- Node: payment-gateway-* -->
    <g class="node-group" transform="translate(435, 265)">
      <rect class="node-bg-pod" x="-32" y="-32" width="64" height="64" rx="14" ry="14" />
      <use href="#icon-pod" x="0" y="-8" />
      <text class="node-text" x="0" y="16">payment-gateway-*</text>
      <text class="node-subtext" x="0" y="27">nginx:alpine</text>
      <g transform="translate(0, -32)">
        <rect class="badge-bg" x="-38.0" y="-8" width="76" height="15" />
        <text class="badge-text" x="0" y="3">1/1 Running</text>
      </g>
    </g>
    <!-- Node: ui-config -->
    <g class="node-group" transform="translate(615, 265)">
      <rect class="node-bg-cm" x="-30" y="-30" width="60" height="60" rx="8" ry="8" />
      <use href="#icon-cm" x="0" y="-8" />
      <text class="node-text" x="0" y="16">ui-config</text>
      <text class="node-subtext" x="0" y="27">nginx.conf</text>
    </g>
  <path d="M 287 265 L 403 265" class="conn-line" />
  <path d="M 467 265 L 585 265" class="conn-dashed" />
  <path d="M 110 310 C 130 310, 150 265, 223 265" class="conn-line" />
  <g transform="translate(145, 275)">
    <rect x="-32" y="-9" width="64" height="18" fill="#1e293b" stroke="#475569" stroke-width="0.8" rx="4" ry="4" />
    <text text-anchor="middle" fill="#94a3b8" font-size="9" font-weight="600" y="3">Port Forward</text>
  </g>

  <!-- Backend API Workload -->
    <!-- Node: payment-gateway-api -->
    <g class="node-group" transform="translate(255, 425)">
      <rect class="node-bg-svc" x="-32" y="-32" width="64" height="64" rx="32" ry="32" />
      <use href="#icon-svc" x="0" y="-8" />
      <text class="node-text" x="0" y="16">payment-gateway-api</text>
      <text class="node-subtext" x="0" y="27">ClusterIP:8080</text>
    </g>
    <!-- Node: payment-gateway-api -->
    <g class="node-group" transform="translate(435, 425)">
      <rect class="node-bg-warning" x="-35" y="-35" width="70" height="70" rx="12" ry="12" />
      <use href="#icon-warning" x="0" y="-8" />
      <text class="node-text" x="0" y="16">payment-gateway-api</text>
      <text class="node-subtext" x="0" y="27">replicas: 0</text>
      <g transform="translate(0, -32)">
        <rect class="badge-warning-bg" x="-44.0" y="-8" width="88" height="15" />
        <text class="badge-text" x="0" y="3">0/0 Desired:0</text>
      </g>
    </g>
    <!-- Node: api-config -->
    <g class="node-group" transform="translate(615, 425)">
      <rect class="node-bg-cm" x="-30" y="-30" width="60" height="60" rx="8" ry="8" />
      <use href="#icon-cm" x="0" y="-8" />
      <text class="node-text" x="0" y="16">api-config</text>
      <text class="node-subtext" x="0" y="27">nginx.conf</text>
    </g>
  <path d="M 467 425 L 585 425" class="conn-dashed" />
  <path d="M 435 297 C 435 340, 255 350, 255 393" class="conn-line" />
  <g transform="translate(365, 345)">
    <text text-anchor="middle" fill="#94a3b8" font-size="10" font-weight="600">HTTP requests</text>
    <text text-anchor="middle" fill="#64748b" font-size="8" font-weight="500" y="10">payment-gateway-api:8080</text>
  </g>

  <path d="M 287 425 L 400 425" class="conn-broken" />
  <!-- Broken routing markers -->
  <g transform="translate(345, 425)">
    <circle cx="0" cy="0" r="14" fill="#450a0a" stroke="#ef4444" stroke-width="1.5" />
    <line x1="-6" y1="-6" x2="6" y2="6" stroke="#ef4444" stroke-width="2.5" />
    <line x1="6" y1="-6" x2="-6" y2="6" stroke="#ef4444" stroke-width="2.5" />
  </g>
  <g transform="translate(345, 453)">
    <rect x="-65" y="-9" width="130" height="18" fill="#7f1d1d" stroke="#f87171" stroke-width="0.8" rx="4" ry="4" />
    <text text-anchor="middle" fill="#ffffff" font-size="9" font-weight="700" y="3">503 Service Unavailable</text>
  </g>

  <!-- Ownership Wall Annotation -->
  <g transform="translate(435, 525)">
    <rect x="-225" y="-20" width="450" height="40" fill="#1e1b29" stroke="#ef4444" stroke-width="1" rx="8" ry="8" />
    <!-- Alert Icon -->
    <polygon points="-205,-4 -195,12 -215,12" fill="#ef4444" stroke="#f87171" stroke-width="1" />
    <circle cx="-205" cy="9" r="1" fill="#ffffff" />
    <line x1="-205" y1="0" x2="-205" y2="6" stroke="#ffffff" stroke-width="2" stroke-linecap="round" />
    <text x="-185" y="4" class="warning-label">OWNERSHIP WALL: No owner, cost-center, or team labels found!</text>
    <text x="-185" y="15" fill="#94a3b8" font-size="9" font-weight="400">At 2 AM, the on-call engineer has no metadata to identify who owns this broken API.</text>
  </g>

  <!-- Footer Section -->
  <g transform="translate(40, 635)">
    <text fill="#475569" font-size="10" font-weight="600">The browser accesses the payment-gateway UI over port 8089 (outside K8s), which calls payment-gateway-api:8080 (inside K8s). The API has 0 endpoints.</text>
  </g>
</svg>